<svg width="16" height="16" viewBox="0 0 16 16" fill="none" xmlns="http://www.w3.org/2000/svg">
<path d="M1.22491 14.3146C1.03027 14.5105 1.03128 14.827 1.22717 15.0217C1.42306 15.2163 1.73964 15.2153 1.93427 15.0194L1.57959 14.667L1.22491 14.3146ZM15.0379 1.62372C15.037 1.34758 14.8125 1.12444 14.5363 1.12533L10.0363 1.13975C9.7602 1.14064 9.53706 1.36521 9.53795 1.64135C9.53883 1.91749 9.76341 2.14063 10.0395 2.13975L14.0395 2.12693L14.0523 6.12691C14.0532 6.40305 14.2778 6.62619 14.5539 6.6253C14.8301 6.62442 15.0532 6.39984 15.0523 6.1237L15.0379 1.62372ZM1.57959 14.667L1.93427 15.0194L14.8926 1.97774L14.5379 1.62533L14.1832 1.27291L1.22491 14.3146L1.57959 14.667Z" fill="black"/>
</svg>
