<svg width="32" height="30" viewBox="0 0 32 30" fill="none" xmlns="http://www.w3.org/2000/svg">
<path d="M31.1443 21.7227H0.716171C0.621199 21.7226 0.527173 21.7415 0.439568 21.7782C0.351962 21.8149 0.272527 21.8686 0.205886 21.9363C0.139246 22.0039 0.0867307 22.0842 0.0513987 22.1723C0.0160667 22.2605 -0.00137635 22.3548 8.47556e-05 22.4497V28.7732C8.47556e-05 28.9631 0.0755293 29.1453 0.209822 29.2796C0.344114 29.4139 0.526253 29.4893 0.716171 29.4893H31.1443C31.3342 29.4893 31.5164 29.4139 31.6507 29.2796C31.785 29.1453 31.8604 28.9631 31.8604 28.7732V22.4497C31.8619 22.3548 31.8444 22.2605 31.8091 22.1723C31.7738 22.0842 31.7213 22.0039 31.6546 21.9363C31.588 21.8686 31.5085 21.8149 31.4209 21.7782C31.3333 21.7415 31.2393 21.7226 31.1443 21.7227ZM30.4282 28.0461H1.43226V23.1548H30.4282V28.0461Z" fill="white"/>
<path d="M19.6978 8.96687C19.6978 8.2217 19.4768 7.49326 19.0628 6.87368C18.6488 6.25409 18.0604 5.77118 17.3719 5.48602C16.6835 5.20085 15.9259 5.12624 15.195 5.27161C14.4642 5.41699 13.7928 5.77582 13.2659 6.30274C12.739 6.82966 12.3801 7.50099 12.2348 8.23184C12.0894 8.96269 12.164 9.72024 12.4492 10.4087C12.7343 11.0971 13.2172 11.6856 13.8368 12.0996C14.4564 12.5136 15.1849 12.7345 15.9301 12.7345C16.4249 12.7345 16.9148 12.6371 17.3719 12.4477C17.829 12.2584 18.2444 11.9809 18.5942 11.631C18.9441 11.2811 19.2216 10.8658 19.411 10.4087C19.6003 9.95158 19.6978 9.46165 19.6978 8.96687ZM13.5945 8.96687C13.5945 8.50495 13.7315 8.05341 13.9881 7.66934C14.2448 7.28526 14.6095 6.98592 15.0363 6.80915C15.4631 6.63238 15.9327 6.58613 16.3857 6.67624C16.8388 6.76636 17.2549 6.9888 17.5816 7.31542C17.9082 7.64205 18.1306 8.05819 18.2207 8.51124C18.3109 8.96428 18.2646 9.43387 18.0878 9.86063C17.9111 10.2874 17.6117 10.6521 17.2276 10.9088C16.8436 11.1654 16.392 11.3024 15.9301 11.3024C15.6234 11.3024 15.3197 11.242 15.0363 11.1246C14.7529 11.0072 14.4955 10.8352 14.2786 10.6183C14.0617 10.4015 13.8897 10.144 13.7723 9.86063C13.6549 9.57727 13.5945 9.27357 13.5945 8.96687Z" fill="white"/>
<path d="M9.87087 20.7989C10.0608 20.7989 10.2429 20.7234 10.3772 20.5891C10.5115 20.4548 10.587 20.2727 10.587 20.0828C10.587 18.6657 11.1499 17.3067 12.1519 16.3047C13.1539 15.3027 14.513 14.7398 15.9301 14.7398C17.3471 14.7398 18.7062 15.3027 19.7082 16.3047C20.7102 17.3067 21.2732 18.6657 21.2732 20.0828C21.2732 20.2727 21.3486 20.4548 21.4829 20.5891C21.6172 20.7234 21.7993 20.7989 21.9893 20.7989C22.1792 20.7989 22.3613 20.7234 22.4956 20.5891C22.6299 20.4548 22.7053 20.2727 22.7053 20.0828C22.7053 18.2859 21.9915 16.5626 20.7209 15.292C19.4503 14.0214 17.727 13.3076 15.9301 13.3076C14.1331 13.3076 12.4098 14.0214 11.1392 15.292C9.86861 16.5626 9.15479 18.2859 9.15479 20.0828C9.15479 20.2727 9.23023 20.4548 9.36452 20.5891C9.49881 20.7234 9.68095 20.7989 9.87087 20.7989Z" fill="white"/>
<path d="M1.76272 20.7985C1.95175 20.7956 2.13224 20.7193 2.26592 20.5856C2.3996 20.4519 2.47596 20.2714 2.4788 20.0824V1.60767C6.90641 2.5092 11.4118 2.97412 15.9302 2.99575C20.4486 2.97412 24.954 2.5092 29.3816 1.60767V20.0824C29.3816 20.2723 29.4571 20.4544 29.5914 20.5887C29.7256 20.723 29.9078 20.7985 30.0977 20.7985C30.2876 20.7985 30.4698 20.723 30.6041 20.5887C30.7383 20.4544 30.8138 20.2723 30.8138 20.0824V0.715334C30.8132 0.608099 30.7892 0.502286 30.7435 0.405256C30.6979 0.308227 30.6316 0.222312 30.5494 0.153491C30.4652 0.086728 30.3668 0.0401085 30.2617 0.0171961C30.1567 -0.00571633 30.0479 -0.0043151 29.9435 0.0212926C25.3378 1.01047 20.6409 1.51264 15.9302 1.51954C11.2195 1.51264 6.52261 1.01047 1.91695 0.0212926C1.81262 -0.00516324 1.70356 -0.00699156 1.5984 0.015952C1.49324 0.0388956 1.39486 0.0859823 1.31103 0.153491C1.22879 0.222312 1.16254 0.308227 1.11687 0.405256C1.07121 0.502286 1.04724 0.608099 1.04663 0.715334V20.0824C1.04663 20.2723 1.12208 20.4544 1.25637 20.5887C1.39066 20.723 1.5728 20.7985 1.76272 20.7985Z" fill="white"/>
<path d="M4.41799 11.787H9.92635C10.0204 11.787 10.1135 11.7685 10.2004 11.7325C10.2873 11.6965 10.3662 11.6438 10.4327 11.5773C10.4992 11.5108 10.5519 11.4318 10.5879 11.345C10.6239 11.2581 10.6424 11.165 10.6424 11.0709V7.99732C10.6424 7.90329 10.6239 7.81017 10.5879 7.7233C10.5519 7.63642 10.4992 7.55748 10.4327 7.49098C10.3662 7.42449 10.2873 7.37174 10.2004 7.33576C10.1135 7.29977 10.0204 7.28125 9.92635 7.28125H4.41799C4.22896 7.28409 4.04847 7.36045 3.91479 7.49413C3.7811 7.62781 3.70475 7.8083 3.7019 7.99732V11.0709C3.70475 11.26 3.7811 11.4405 3.91479 11.5741C4.04847 11.7078 4.22896 11.7842 4.41799 11.787ZM5.13408 8.7134H9.15518V10.3328H5.13408V8.7134Z" fill="white"/>
<path d="M4.41731 14.4197H9.92567C10.1017 14.3979 10.2637 14.3126 10.3811 14.1797C10.4986 14.0468 10.5634 13.8755 10.5634 13.6981C10.5634 13.5208 10.4986 13.3495 10.3811 13.2166C10.2637 13.0837 10.1017 12.9984 9.92567 12.9766H4.41731C4.24129 12.9984 4.0793 13.0837 3.96184 13.2166C3.84437 13.3495 3.77954 13.5208 3.77954 13.6981C3.77954 13.8755 3.84437 14.0468 3.96184 14.1797C4.0793 14.3126 4.24129 14.3979 4.41731 14.4197Z" fill="white"/>
<path d="M28.1151 13.1512V5.28541C28.1151 5.0955 28.0396 4.91336 27.9053 4.77907C27.771 4.64478 27.5889 4.56934 27.399 4.56934H21.9898C21.7998 4.56934 21.6177 4.64478 21.4834 4.77907C21.3491 4.91336 21.2737 5.0955 21.2737 5.28541V13.1512C21.2737 13.3411 21.3491 13.5233 21.4834 13.6575C21.6177 13.7918 21.7998 13.8673 21.9898 13.8673H27.399C27.5889 13.8673 27.771 13.7918 27.9053 13.6575C28.0396 13.5233 28.1151 13.3411 28.1151 13.1512ZM26.6829 12.4351H22.7059V6.00148H26.6829V12.4351Z" fill="white"/>
</svg>
