<svg width="17" height="17" viewBox="0 0 17 17" fill="none" xmlns="http://www.w3.org/2000/svg">
<mask id="path-1-inside-1_4548_1446" fill="white">
<path d="M12.9482 0C13.1791 0.000239343 13.3661 0.187107 13.3662 0.417969V3.36133H16.2695C16.5006 3.36133 16.6884 3.54821 16.6885 3.7793C16.6885 4.01043 16.5007 4.19824 16.2695 4.19824H13.3662V12.5674H16.2695C16.5005 12.5674 16.6883 12.7544 16.6885 12.9854C16.6885 13.2165 16.5007 13.4043 16.2695 13.4043H13.3662V16.3213C13.3662 16.5523 13.1792 16.74 12.9482 16.7402C12.7171 16.7402 12.5293 16.5524 12.5293 16.3213V13.4043H4.15918V16.3213C4.15918 16.5523 3.97216 16.74 3.74121 16.7402C3.51008 16.7402 3.32227 16.5524 3.32227 16.3213V13.4043H0.418945C0.187813 13.4043 -9.60624e-09 13.2165 0 12.9854C0.000191761 12.7544 0.187931 12.5674 0.418945 12.5674H3.32227V4.19824H0.418945C0.187813 4.19824 -9.60624e-09 4.01043 0 3.7793C4.79323e-05 3.54821 0.187843 3.36133 0.418945 3.36133H3.32227V0.417969C3.32241 0.186959 3.51017 0 3.74121 0C3.97207 0.000215406 4.15904 0.187092 4.15918 0.417969V3.36133H12.5293V0.417969C12.5294 0.186959 12.7172 0 12.9482 0ZM4.15918 12.5674H12.5293V4.19824H4.15918V12.5674Z"/>
</mask>
<path d="M12.9482 0C13.1791 0.000239343 13.3661 0.187107 13.3662 0.417969V3.36133H16.2695C16.5006 3.36133 16.6884 3.54821 16.6885 3.7793C16.6885 4.01043 16.5007 4.19824 16.2695 4.19824H13.3662V12.5674H16.2695C16.5005 12.5674 16.6883 12.7544 16.6885 12.9854C16.6885 13.2165 16.5007 13.4043 16.2695 13.4043H13.3662V16.3213C13.3662 16.5523 13.1792 16.74 12.9482 16.7402C12.7171 16.7402 12.5293 16.5524 12.5293 16.3213V13.4043H4.15918V16.3213C4.15918 16.5523 3.97216 16.74 3.74121 16.7402C3.51008 16.7402 3.32227 16.5524 3.32227 16.3213V13.4043H0.418945C0.187813 13.4043 -9.60624e-09 13.2165 0 12.9854C0.000191761 12.7544 0.187931 12.5674 0.418945 12.5674H3.32227V4.19824H0.418945C0.187813 4.19824 -9.60624e-09 4.01043 0 3.7793C4.79323e-05 3.54821 0.187843 3.36133 0.418945 3.36133H3.32227V0.417969C3.32241 0.186959 3.51017 0 3.74121 0C3.97207 0.000215406 4.15904 0.187092 4.15918 0.417969V3.36133H12.5293V0.417969C12.5294 0.186959 12.7172 0 12.9482 0ZM4.15918 12.5674H12.5293V4.19824H4.15918V12.5674Z" fill="#565656"/>
<path d="M12.9482 0L12.9493 -1H12.9482V0ZM13.3662 0.417969H14.3662V0.417344L13.3662 0.417969ZM13.3662 3.36133H12.3662V4.36133H13.3662V3.36133ZM16.2695 3.36133V2.36133V2.36133V3.36133ZM16.6885 3.7793H17.6885V3.77909L16.6885 3.7793ZM16.2695 4.19824V3.19824V3.19824V4.19824ZM13.3662 4.19824V3.19824H12.3662V4.19824H13.3662ZM13.3662 12.5674H12.3662V13.5674H13.3662V12.5674ZM16.2695 12.5674V11.5674V11.5674V12.5674ZM16.6885 12.9854H17.6885V12.9845L16.6885 12.9854ZM16.2695 13.4043V12.4043V12.4043V13.4043ZM13.3662 13.4043V12.4043H12.3662V13.4043H13.3662ZM12.9482 16.7402V17.7402H12.9493L12.9482 16.7402ZM12.5293 13.4043H13.5293V12.4043H12.5293V13.4043ZM4.15918 13.4043V12.4043H3.15918V13.4043H4.15918ZM3.74121 16.7402V17.7402H3.74214L3.74121 16.7402ZM3.32227 13.4043H4.32227V12.4043H3.32227V13.4043ZM0.418945 13.4043L0.418945 14.4043H0.418945V13.4043ZM0 12.9854L-1 12.9845V12.9854H0ZM0.418945 12.5674L0.418945 13.5674H0.418945V12.5674ZM3.32227 12.5674V13.5674H4.32227V12.5674H3.32227ZM3.32227 4.19824H4.32227V3.19824H3.32227V4.19824ZM0.418945 4.19824L0.418945 5.19824H0.418945V4.19824ZM0 3.7793L-1 3.77909V3.7793H0ZM0.418945 3.36133L0.418945 4.36133H0.418945V3.36133ZM3.32227 3.36133V4.36133H4.32227V3.36133H3.32227ZM3.32227 0.417969L2.32227 0.417345V0.417969H3.32227ZM3.74121 0L3.74214 -1H3.74121V0ZM4.15918 0.417969H5.15918V0.417344L4.15918 0.417969ZM4.15918 3.36133H3.15918V4.36133H4.15918V3.36133ZM12.5293 3.36133V4.36133H13.5293V3.36133H12.5293ZM12.5293 0.417969L11.5293 0.417345V0.417969H12.5293ZM4.15918 12.5674H3.15918V13.5674H4.15918V12.5674ZM12.5293 12.5674V13.5674H13.5293V12.5674H12.5293ZM12.5293 4.19824H13.5293V3.19824H12.5293V4.19824ZM4.15918 4.19824V3.19824H3.15918V4.19824H4.15918ZM12.9482 0L12.9472 0.999999C12.627 0.999667 12.3664 0.739939 12.3662 0.418593L13.3662 0.417969L14.3662 0.417344C14.3657 -0.365725 13.7312 -0.999189 12.9493 -0.999999L12.9482 0ZM13.3662 0.417969H12.3662V3.36133H13.3662H14.3662V0.417969H13.3662ZM13.3662 3.36133V4.36133H16.2695V3.36133V2.36133H13.3662V3.36133ZM16.2695 3.36133V4.36133C15.9512 4.36133 15.6885 4.10337 15.6885 3.77951L16.6885 3.7793L17.6885 3.77909C17.6883 2.99305 17.0501 2.36133 16.2695 2.36133V3.36133ZM16.6885 3.7793H15.6885C15.6885 3.45814 15.9484 3.19824 16.2695 3.19824V4.19824V5.19824C17.0529 5.19824 17.6885 4.56271 17.6885 3.7793H16.6885ZM16.2695 4.19824V3.19824H13.3662V4.19824V5.19824H16.2695V4.19824ZM13.3662 4.19824H12.3662V12.5674H13.3662H14.3662V4.19824H13.3662ZM13.3662 12.5674V13.5674H16.2695V12.5674V11.5674H13.3662V12.5674ZM16.2695 12.5674V13.5674C15.9505 13.5674 15.6887 13.3091 15.6885 12.9862L16.6885 12.9854L17.6885 12.9845C17.6878 12.1997 17.0506 11.5674 16.2695 11.5674V12.5674ZM16.6885 12.9854H15.6885C15.6885 12.6642 15.9484 12.4043 16.2695 12.4043V13.4043V14.4043C17.0529 14.4043 17.6885 13.7688 17.6885 12.9854H16.6885ZM16.2695 13.4043V12.4043H13.3662V13.4043V14.4043H16.2695V13.4043ZM13.3662 13.4043H12.3662V16.3213H13.3662H14.3662V13.4043H13.3662ZM13.3662 16.3213H12.3662C12.3662 16.002 12.6247 15.7406 12.9472 15.7402L12.9482 16.7402L12.9493 17.7402C13.7337 17.7394 14.3662 17.1026 14.3662 16.3213H13.3662ZM12.9482 16.7402V15.7402C13.2694 15.7402 13.5293 16.0001 13.5293 16.3213H12.5293H11.5293C11.5293 17.1047 12.1648 17.7402 12.9482 17.7402V16.7402ZM12.5293 16.3213H13.5293V13.4043H12.5293H11.5293V16.3213H12.5293ZM12.5293 13.4043V12.4043H4.15918V13.4043V14.4043H12.5293V13.4043ZM4.15918 13.4043H3.15918V16.3213H4.15918H5.15918V13.4043H4.15918ZM4.15918 16.3213H3.15918C3.15918 16.0021 3.41756 15.7405 3.74028 15.7402L3.74121 16.7402L3.74214 17.7402C4.52676 17.7395 5.15918 17.1025 5.15918 16.3213H4.15918ZM3.74121 16.7402V15.7402C4.06236 15.7402 4.32227 16.0001 4.32227 16.3213H3.32227H2.32227C2.32227 17.1047 2.95779 17.7402 3.74121 17.7402V16.7402ZM3.32227 16.3213H4.32227V13.4043H3.32227H2.32227V16.3213H3.32227ZM3.32227 13.4043V12.4043H0.418945V13.4043V14.4043H3.32227V13.4043ZM0.418945 13.4043L0.418945 12.4043C0.740098 12.4043 1 12.6642 1 12.9854H0H-1C-1 13.7688 -0.364472 14.4043 0.418945 14.4043L0.418945 13.4043ZM0 12.9854L1 12.9862C0.999732 13.3091 0.738003 13.5674 0.418945 13.5674L0.418945 12.5674L0.418945 11.5674C-0.362141 11.5674 -0.999348 12.1997 -1 12.9845L0 12.9854ZM0.418945 12.5674V13.5674H3.32227V12.5674V11.5674H0.418945V12.5674ZM3.32227 12.5674H4.32227V4.19824H3.32227H2.32227V12.5674H3.32227ZM3.32227 4.19824V3.19824H0.418945V4.19824V5.19824H3.32227V4.19824ZM0.418945 4.19824L0.418945 3.19824C0.740098 3.19824 1 3.45814 1 3.7793H0H-1C-1 4.56271 -0.364472 5.19824 0.418945 5.19824L0.418945 4.19824ZM0 3.7793L1 3.7795C0.999933 4.10337 0.737292 4.36133 0.418945 4.36133L0.418945 3.36133L0.418945 2.36133C-0.361607 2.36133 -0.999837 2.99304 -1 3.77909L0 3.7793ZM0.418945 3.36133V4.36133H3.32227V3.36133V2.36133H0.418945V3.36133ZM3.32227 3.36133H4.32227V0.417969H3.32227H2.32227V3.36133H3.32227ZM3.32227 0.417969L4.32227 0.418592C4.32206 0.741797 4.06003 1 3.74121 1V0V-1C2.9603 -1 2.32276 -0.367879 2.32227 0.417345L3.32227 0.417969ZM3.74121 0L3.74028 1C3.41989 0.999701 3.15938 0.739821 3.15918 0.418593L4.15918 0.417969L5.15918 0.417344C5.15869 -0.365636 4.52425 -0.99927 3.74214 -1L3.74121 0ZM4.15918 0.417969H3.15918V3.36133H4.15918H5.15918V0.417969H4.15918ZM4.15918 3.36133V4.36133H12.5293V3.36133V2.36133H4.15918V3.36133ZM12.5293 3.36133H13.5293V0.417969H12.5293H11.5293V3.36133H12.5293ZM12.5293 0.417969L13.5293 0.418592C13.5291 0.741797 13.2671 1 12.9482 1V0V-1C12.1673 -1 11.5298 -0.367879 11.5293 0.417345L12.5293 0.417969ZM4.15918 12.5674V13.5674H12.5293V12.5674V11.5674H4.15918V12.5674ZM12.5293 12.5674H13.5293V4.19824H12.5293H11.5293V12.5674H12.5293ZM12.5293 4.19824V3.19824H4.15918V4.19824V5.19824H12.5293V4.19824ZM4.15918 4.19824H3.15918V12.5674H4.15918H5.15918V4.19824H4.15918Z" fill="black" mask="url(#path-1-inside-1_4548_1446)"/>
</svg>
