<svg width="14" height="17" viewBox="0 0 14 17" fill="none" xmlns="http://www.w3.org/2000/svg">
<path fill-rule="evenodd" clip-rule="evenodd" d="M12.6957 3.41266L12.6943 3.41136C12.4327 3.15589 12.0832 3.01514 11.7106 3.01514C11.3717 3.01514 11.061 3.13449 10.8199 3.33253V2.91341C10.8199 2.55194 10.6746 2.21102 10.4106 1.95355C10.1487 1.69808 9.80042 1.55733 9.43007 1.55733C9.09119 1.55733 8.78043 1.67668 8.5394 1.87472V1.45569C8.5394 1.09598 8.39576 0.755535 8.13343 0.495833C7.87159 0.240357 7.5223 0.0996094 7.14965 0.0996094C6.38496 0.0996094 5.76292 0.70792 5.76292 1.45569V1.56558C5.53038 1.37427 5.24021 1.26271 4.93379 1.24877C4.56865 1.2321 4.21644 1.36398 3.9419 1.61994C3.6499 1.89184 3.48254 2.27212 3.48254 2.66335V8.16474L2.6855 6.84659C2.43505 6.43679 1.97615 6.18226 1.48795 6.18226C1.24076 6.18226 0.997338 6.24678 0.782601 6.36943C0.125585 6.74968 -0.0926563 7.58243 0.284824 8.20504L3.05318 14.0111C3.87535 15.5798 5.25893 16.2486 7.79356 16.072C11.8745 15.8516 13.1001 14.3931 13.1001 12.553V4.37109C13.1001 4.0115 12.9566 3.67109 12.6957 3.41266ZM7.79356 15.5798C10.4778 15.4384 12.6042 14.7739 12.6042 12.5529L12.6044 4.37121C12.6044 4.1397 12.5116 3.92015 12.343 3.75295C12.1749 3.58929 11.9506 3.49924 11.7108 3.49924C11.2196 3.49924 10.8201 3.89035 10.8201 4.37119V7.122C10.8201 7.25565 10.7092 7.36401 10.5721 7.36401C10.435 7.36401 10.3241 7.25565 10.3241 7.122V2.91353C10.3241 2.68133 10.2303 2.46201 10.06 2.29587C9.89197 2.13186 9.66815 2.04146 9.43028 2.04146C8.9393 2.04146 8.53962 2.43269 8.53962 2.91352V6.12463C8.53962 6.25828 8.42868 6.36664 8.29158 6.36664C8.15448 6.36664 8.04354 6.25828 8.04354 6.12463V1.45574C8.04354 1.22402 7.95053 1.00411 7.78146 0.836785C7.61481 0.67407 7.39003 0.583672 7.14987 0.583672C6.65876 0.583672 6.2592 0.974904 6.2592 1.45574V6.68729C6.2592 6.82094 6.14814 6.9293 6.01117 6.9293C5.87419 6.9293 5.76313 6.82094 5.76313 6.68729V2.60345C5.76313 2.37112 5.66939 2.15182 5.49935 1.98579C5.342 1.83241 5.1331 1.74237 4.91098 1.73232C4.68294 1.72004 4.46021 1.8063 4.28459 1.96996C4.09021 2.15098 3.97879 2.40375 3.97879 2.66336V9.0511C3.97879 9.16016 3.90394 9.25588 3.79603 9.28459C3.68824 9.31355 3.57403 9.26805 3.51711 9.17411L2.25901 7.09344C2.09819 6.83028 1.80256 6.66615 1.48814 6.66615C1.32683 6.66615 1.17422 6.70656 1.0347 6.78632C0.613483 7.03011 0.473358 7.56585 0.723574 7.97993L3.50319 13.8068C4.0191 14.8889 5.00314 15.7268 7.79356 15.5798Z" fill="#666A73" stroke="#565656" stroke-width="0.2"/>
</svg>
