<svg width="14" height="14" viewBox="0 0 14 14" fill="none" xmlns="http://www.w3.org/2000/svg">
<path d="M13.4617 5.38466C13.1673 5.38466 12.9232 5.14055 12.9232 4.84619V1.07693H9.15394C8.85958 1.07693 8.61548 0.832827 8.61548 0.538466C8.61548 0.244105 8.85958 0 9.15394 0H13.4617C13.756 0 14.0001 0.244105 14.0001 0.538466V4.84619C14.0001 5.14055 13.756 5.38466 13.4617 5.38466Z" fill="#171717"/>
<path d="M4.84618 13.9999H0.538464C0.244104 13.9999 0 13.7558 0 13.4614V9.1537C0 8.85934 0.244104 8.61523 0.538464 8.61523C0.832824 8.61523 1.07693 8.85934 1.07693 9.1537V12.923H4.84618C5.14054 12.923 5.38464 13.1671 5.38464 13.4614C5.38464 13.7558 5.14054 13.9999 4.84618 13.9999Z" fill="#171717"/>
<path d="M8.07695 6.46175C7.94054 6.46175 7.80413 6.41149 7.69644 6.3038C7.48823 6.09559 7.48823 5.75097 7.69644 5.54277L13.0811 0.158108C13.2893 -0.0500986 13.6339 -0.0500986 13.8421 0.158108C14.0503 0.366315 14.0503 0.710933 13.8421 0.91914L8.45747 6.3038C8.34977 6.41149 8.21336 6.46175 8.07695 6.46175Z" fill="#171717"/>
<path d="M0.538622 13.9998C0.402211 13.9998 0.265801 13.9496 0.158108 13.8419C-0.0500984 13.6337 -0.0500984 13.2891 0.158108 13.0809L5.54275 7.69619C5.75095 7.48799 6.09557 7.48799 6.30378 7.69619C6.51198 7.9044 6.51198 8.24902 6.30378 8.45723L0.919137 13.8419C0.811444 13.9496 0.675033 13.9998 0.538622 13.9998Z" fill="#171717"/>
</svg>
