<svg width="15" height="15" viewBox="0 0 15 15" fill="none" xmlns="http://www.w3.org/2000/svg">
<path d="M0.60808 1.77435L5.33073 13.9687C5.43005 14.1551 5.58564 14.3053 5.77533 14.3981C5.96501 14.4908 6.17913 14.5213 6.38715 14.4852C6.59518 14.4491 6.78651 14.3482 6.93387 14.197C7.08124 14.0457 7.17712 13.8518 7.20787 13.6428L8.28787 8.30048L13.6364 7.21144C13.8459 7.18205 14.0407 7.08713 14.1931 6.94027C14.3454 6.79341 14.4474 6.60212 14.4845 6.39377C14.5216 6.18541 14.4918 5.97066 14.3996 5.78022C14.3073 5.58978 14.1572 5.43342 13.9707 5.33348L1.77379 0.608128C1.61095 0.517509 1.42302 0.48245 1.23847 0.50826C1.05393 0.534069 0.882814 0.619341 0.751051 0.751161C0.619288 0.882982 0.534053 1.05417 0.508255 1.2388C0.482457 1.42342 0.517501 1.61143 0.60808 1.77435Z" stroke="white" stroke-linecap="round" stroke-linejoin="round"/>
</svg>
