<svg width="16" height="16" viewBox="0 0 16 16" fill="none" xmlns="http://www.w3.org/2000/svg">
<path d="M10.9166 10.9167H14.6666C15.1268 10.9167 15.4999 10.5436 15.4999 10.0833V1.33333C15.4999 0.873096 15.1268 0.5 14.6666 0.5H5.91659C5.45634 0.5 5.08325 0.873096 5.08325 1.33333V5.08333" stroke="#333333" stroke-linecap="round" stroke-linejoin="round"/>
<path d="M5.08333 5.08301H1.33333C0.873096 5.08301 0.5 5.45609 0.5 5.91634V14.6663C0.5 15.1266 0.873096 15.4997 1.33333 15.4997H10.0833C10.5436 15.4997 10.9167 15.1266 10.9167 14.6663V10.9163" stroke="#333333" stroke-linecap="round" stroke-linejoin="round"/>
<path d="M10.0833 5.08301H5.91659C5.45635 5.08301 5.08325 5.4561 5.08325 5.91634V10.083C5.08325 10.5432 5.45635 10.9163 5.91659 10.9163H10.0833C10.5435 10.9163 10.9166 10.5432 10.9166 10.083V5.91634C10.9166 5.4561 10.5435 5.08301 10.0833 5.08301Z" stroke="#333333" stroke-linecap="round" stroke-linejoin="round"/>
</svg>
