<svg width="18" height="18" viewBox="0 0 18 18" fill="none" xmlns="http://www.w3.org/2000/svg">
<path d="M17.5 9.5V17.5H9.5V9.5H17.5ZM5.5 0.5C6.82608 0.5 8.09747 1.02716 9.03516 1.96484C9.97284 2.90253 10.5 4.17392 10.5 5.5C10.5 6.71006 10.0728 7.81801 9.35547 8.68066L9.04883 9.04883L8.68066 9.35547C7.81801 10.0728 6.71006 10.5 5.5 10.5C4.17392 10.5 2.90253 9.97284 1.96484 9.03516C1.02716 8.09747 0.5 6.82608 0.5 5.5C0.5 4.17392 1.02716 2.90253 1.96484 1.96484C2.90253 1.02716 4.17392 0.5 5.5 0.5Z" stroke="black"/>
</svg>
