<svg width="22" height="13" viewBox="0 0 22 13" fill="none" xmlns="http://www.w3.org/2000/svg">
<path d="M6.42593 1.07841C6.06193 1.70375 5.5766 2.34308 4.96993 2.99641C4.3726 3.64041 3.70527 4.26108 2.96793 4.85841C2.2306 5.44641 1.4606 5.96441 0.657934 6.41241C0.611267 6.32841 0.5506 6.23508 0.475934 6.13241C0.401267 6.02041 0.321934 5.91775 0.237934 5.82441C0.163267 5.72175 0.0839336 5.63308 -6.63996e-05 5.55841C0.821267 5.11975 1.60993 4.59708 2.36593 3.99041C3.12193 3.38375 3.7986 2.73508 4.39593 2.04441C4.99327 1.34441 5.4646 0.66308 5.80993 0.000413775H6.91593C7.27993 0.57908 7.69527 1.13908 8.16193 1.68041C8.6286 2.21241 9.12793 2.71175 9.65993 3.17841C10.2013 3.63575 10.7566 4.05575 11.3259 4.43841C11.8953 4.81175 12.4599 5.12441 13.0199 5.37641C12.8986 5.50708 12.7773 5.66108 12.6559 5.83841C12.5346 6.00641 12.4226 6.16508 12.3199 6.31441C11.5733 5.91308 10.8266 5.43241 10.0799 4.87241C9.3426 4.31241 8.65193 3.70575 8.00793 3.05241C7.37327 2.39908 6.84593 1.74108 6.42593 1.07841ZM8.41393 4.94241H9.49193V12.8804H8.41393V4.94241ZM3.41593 4.99841H4.47993V6.95841C4.47993 7.45308 4.44727 7.96641 4.38193 8.49841C4.32593 9.02108 4.1906 9.54375 3.97593 10.0664C3.7706 10.5797 3.45793 11.0791 3.03793 11.5644C2.62727 12.0497 2.07193 12.4977 1.37193 12.9084C1.31593 12.8244 1.2366 12.7357 1.13393 12.6424C1.0406 12.5491 0.937934 12.4557 0.825934 12.3624C0.713934 12.2784 0.615934 12.2131 0.531934 12.1664C1.18527 11.7837 1.70327 11.3824 2.08593 10.9624C2.4686 10.5331 2.75327 10.0897 2.93993 9.63241C3.13593 9.17508 3.26193 8.72241 3.31793 8.27441C3.38327 7.81708 3.41593 7.37375 3.41593 6.94441V4.99841ZM20.2831 4.13805C20.2234 3.63426 19.9815 3.24316 19.5572 2.96475C19.133 2.68635 18.6126 2.54714 17.9961 2.54714C17.5454 2.54714 17.151 2.62006 16.8129 2.76589C16.4781 2.91172 16.2163 3.11225 16.0274 3.36745C15.8418 3.62266 15.749 3.91267 15.749 4.23748C15.749 4.50926 15.8136 4.74293 15.9429 4.93848C16.0754 5.13071 16.2445 5.29146 16.45 5.42072C16.6555 5.54667 16.8709 5.65107 17.0963 5.73393C17.3217 5.81348 17.5288 5.87811 17.7177 5.92782L18.7518 6.20623C19.017 6.27583 19.312 6.37195 19.6368 6.49458C19.9649 6.61722 20.2781 6.78459 20.5764 6.99672C20.878 7.20552 21.1266 7.47399 21.3221 7.80211C21.5177 8.13024 21.6155 8.53294 21.6155 9.01021C21.6155 9.5604 21.4713 10.0576 21.1829 10.5017C20.8979 10.9458 20.4803 11.2988 19.9301 11.5606C19.3832 11.8225 18.7187 11.9534 17.9365 11.9534C17.2073 11.9534 16.5759 11.8357 16.0423 11.6004C15.512 11.3651 15.0944 11.037 14.7895 10.616C14.4879 10.1951 14.3172 9.70623 14.2774 9.14941H15.5501C15.5833 9.53388 15.7125 9.85207 15.9379 10.104C16.1666 10.3525 16.4549 10.5381 16.803 10.6608C17.1543 10.7801 17.5321 10.8398 17.9365 10.8398C18.4071 10.8398 18.8297 10.7635 19.2042 10.6111C19.5788 10.4553 19.8754 10.2398 20.0941 9.96475C20.3129 9.68635 20.4223 9.36154 20.4223 8.99032C20.4223 8.65225 20.3278 8.37716 20.1389 8.16504C19.95 7.95292 19.7014 7.78057 19.3932 7.64799C19.0849 7.51542 18.7518 7.39941 18.3939 7.29998L17.141 6.94203C16.3456 6.71333 15.7158 6.38687 15.2518 5.96262C14.7878 5.53838 14.5558 4.98322 14.5558 4.29714C14.5558 3.72707 14.7099 3.22991 15.0182 2.80566C15.3297 2.37811 15.7473 2.04667 16.271 1.81135C16.798 1.57271 17.3863 1.45339 18.0359 1.45339C18.6922 1.45339 19.2755 1.57105 19.7859 1.80637C20.2963 2.03838 20.7007 2.35656 20.999 2.76092C21.3006 3.16528 21.4597 3.62432 21.4763 4.13805H20.2831Z" fill="black"/>
</svg>
