<svg width="18" height="20" viewBox="0 0 18 20" fill="none" xmlns="http://www.w3.org/2000/svg">
<path d="M17 1.68411e-07C16.8687 -7.47612e-05 16.7386 0.0257398 16.6172 0.075968C16.4959 0.126196 16.3856 0.199853 16.2927 0.292726C16.1999 0.3856 16.1262 0.495869 16.076 0.617228C16.0257 0.738587 15.9999 0.868657 16 1V1.63672C15.1566 2.68242 14.0907 3.52691 12.8797 4.10872C11.6688 4.69053 10.3434 4.99501 9 5H3C2.20462 5.00087 1.44206 5.31722 0.879639 5.87964C0.317218 6.44206 0.000868196 7.20462 0 8V10C0.000868196 10.7954 0.317218 11.5579 0.879639 12.1204C1.44206 12.6828 2.20462 12.9991 3 13H3.48379L1.08106 18.6064C1.01576 18.7585 0.989255 18.9244 1.00391 19.0892C1.01857 19.254 1.07393 19.4126 1.16503 19.5508C1.25613 19.689 1.38011 19.8023 1.52585 19.8807C1.67159 19.9591 1.83451 20.0001 2 20H6C6.19575 20.0001 6.38722 19.9427 6.55061 19.8349C6.71399 19.7271 6.84208 19.5736 6.91895 19.3936L9.6427 13.038C10.8733 13.1284 12.0724 13.47 13.1658 14.0419C14.2592 14.6138 15.2238 15.4038 16 16.3631V17C16 17.2652 16.1054 17.5196 16.2929 17.7071C16.4804 17.8946 16.7348 18 17 18C17.2652 18 17.5196 17.8946 17.7071 17.7071C17.8946 17.5196 18 17.2652 18 17V1C18.0001 0.868657 17.9743 0.738587 17.924 0.617227C17.8738 0.495867 17.8001 0.385597 17.7073 0.292723C17.6144 0.19985 17.5041 0.126193 17.3828 0.0759653C17.2614 0.0257376 17.1313 -7.60771e-05 17 1.68411e-07ZM3 11C2.73484 10.9998 2.48059 10.8944 2.29309 10.7069C2.10559 10.5194 2.00018 10.2652 2 10V8C2.00018 7.73484 2.10559 7.48059 2.29309 7.29309C2.48059 7.1056 2.73484 7.00018 3 7H4V11H3ZM5.34082 18H3.5166L5.65918 13H7.4834L5.34082 18ZM16 13.5218C14.0283 11.8974 11.5547 11.0063 9 11H6V6.99995H9C11.5547 6.99342 14.0283 6.10211 16 4.47761V13.5218Z" fill="#717693"/>
</svg>
