<svg width="14" height="14" viewBox="0 0 14 14" fill="none" xmlns="http://www.w3.org/2000/svg">
<path d="M6.66699 0C10.3489 0 13.334 2.98509 13.334 6.66699C13.334 10.3489 10.3489 13.334 6.66699 13.334C2.98509 13.334 0 10.3489 0 6.66699C1.69109e-07 2.98509 2.98509 1.69115e-07 6.66699 0ZM7.80859 3.50879C7.44913 2.40371 5.88485 2.40371 5.52539 3.50879L5.36328 4.00977C5.20252 4.50399 4.7414 4.83886 4.22168 4.83887H3.69727C2.53447 4.83887 2.05111 6.32679 2.99219 7.00977L3.41406 7.31641C3.83502 7.62191 4.01132 8.16356 3.85059 8.6582L3.68848 9.15625C3.32917 10.2615 4.5945 11.1807 5.53516 10.498L5.96191 10.1885C6.38228 9.8834 6.9517 9.8834 7.37207 10.1885L7.79883 10.498C8.73948 11.1807 10.0048 10.2615 9.64551 9.15625L9.4834 8.6582C9.32266 8.16356 9.49897 7.62191 9.91992 7.31641L10.3418 7.00977C11.2829 6.32679 10.7995 4.83887 9.63672 4.83887H9.1123C8.59259 4.83886 8.13147 4.50399 7.9707 4.00977L7.80859 3.50879Z" fill="#6452E7"/>
</svg>
