<svg width="17" height="17" viewBox="0 0 17 17" fill="none" xmlns="http://www.w3.org/2000/svg">
<path d="M6.37492 7.61458C5.29825 7.61458 4.427 6.74333 4.427 5.66667C4.427 4.59 5.29825 3.71875 6.37492 3.71875C7.45159 3.71875 8.32284 4.59 8.32284 5.66667C8.32284 6.74333 7.45159 7.61458 6.37492 7.61458ZM6.37492 4.78125C5.88617 4.78125 5.4895 5.17792 5.4895 5.66667C5.4895 6.15542 5.88617 6.55208 6.37492 6.55208C6.86367 6.55208 7.26034 6.15542 7.26034 5.66667C7.26034 5.17792 6.86367 4.78125 6.37492 4.78125Z" fill="#171717"/>
<path d="M10.6251 16.1149H6.37508C2.52883 16.1149 0.885498 14.4716 0.885498 10.6253V6.37533C0.885498 2.52908 2.52883 0.885742 6.37508 0.885742H9.20842C9.49883 0.885742 9.73967 1.12658 9.73967 1.41699C9.73967 1.70741 9.49883 1.94824 9.20842 1.94824H6.37508C3.10966 1.94824 1.948 3.10991 1.948 6.37533V10.6253C1.948 13.8907 3.10966 15.0524 6.37508 15.0524H10.6251C13.8905 15.0524 15.0522 13.8907 15.0522 10.6253V7.08366C15.0522 6.79324 15.293 6.55241 15.5834 6.55241C15.8738 6.55241 16.1147 6.79324 16.1147 7.08366V10.6253C16.1147 14.4716 14.4713 16.1149 10.6251 16.1149Z" fill="#171717"/>
<path d="M11.0994 6.90643C10.8231 6.90643 10.5681 6.80726 10.384 6.61601C10.1644 6.39643 10.0581 6.0706 10.1077 5.73768L10.2494 4.7531C10.2848 4.50518 10.4335 4.2006 10.6177 4.02351L13.189 1.45226C14.216 0.42518 15.1085 1.0131 15.5477 1.45226C15.9656 1.87018 16.1569 2.30935 16.1144 2.76268C16.079 3.12393 15.8948 3.47101 15.5477 3.81101L12.9765 6.38226C12.7994 6.55935 12.4948 6.7081 12.2469 6.7506L11.2623 6.89226C11.2056 6.90643 11.149 6.90643 11.0994 6.90643ZM13.9327 2.21018L11.3615 4.78143C11.3402 4.80268 11.3048 4.8806 11.2977 4.91601L11.1631 5.83685L12.091 5.70935C12.1194 5.70226 12.1973 5.66685 12.2256 5.63851L14.7969 3.06726C14.9527 2.91143 15.0448 2.76976 15.0519 2.66351C15.066 2.51476 14.9173 2.3306 14.7969 2.21018C14.4285 1.84185 14.2585 1.88435 13.9327 2.21018Z" fill="#171717"/>
<path d="M14.8041 4.34147C14.7545 4.34147 14.7049 4.33438 14.6624 4.32022C13.7133 4.05105 12.9554 3.29313 12.6862 2.34397C12.6083 2.06063 12.7712 1.77022 13.0545 1.6923C13.3379 1.61438 13.6283 1.7773 13.7062 2.06063C13.8762 2.65563 14.3508 3.1373 14.9529 3.3073C15.2362 3.38522 15.3991 3.68272 15.3212 3.95897C15.2433 4.18563 15.0308 4.34147 14.8041 4.34147Z" fill="#171717"/>
<path d="M1.89125 13.954C1.72125 13.954 1.55125 13.869 1.45209 13.7202C1.28917 13.4794 1.35292 13.1465 1.59375 12.9836L5.08584 10.639C5.85084 10.129 6.90625 10.1857 7.60042 10.7736L7.83417 10.979C8.18834 11.2836 8.79042 11.2836 9.1375 10.979L12.0842 8.45023C12.835 7.80565 14.0179 7.80565 14.7758 8.45023L15.9304 9.4419C16.15 9.63315 16.1783 9.96607 15.9871 10.1927C15.7958 10.4123 15.4629 10.4407 15.2363 10.2494L14.0817 9.25773C13.7275 8.95315 13.1254 8.95315 12.7783 9.25773L9.83167 11.7865C9.08084 12.4311 7.89792 12.4311 7.14 11.7865L6.90625 11.5811C6.58042 11.3048 6.04209 11.2765 5.68084 11.5244L2.19584 13.869C2.09667 13.9257 1.99042 13.954 1.89125 13.954Z" fill="#171717"/>
</svg>
