<svg width="18" height="18" viewBox="0 0 18 18" fill="none" xmlns="http://www.w3.org/2000/svg">
<path fill-rule="evenodd" clip-rule="evenodd" d="M13.0721 17.0643C13.1771 17.1693 13.3321 17.2079 13.4731 17.1613C15.48 16.4967 16.3193 15.6172 17.1445 13.4827C17.2008 13.3369 17.1645 13.1717 17.054 13.0611L14.4655 10.4727L14.4631 10.4703L5.76336 1.77054C5.71571 1.72289 5.6568 1.68806 5.59209 1.66926L0.762407 0.266403C0.459534 0.178428 0.178734 0.459227 0.266708 0.762101L1.66956 5.59179C1.68836 5.65649 1.7232 5.71541 1.77085 5.76305L10.4706 14.4628L10.473 14.4652L10.8473 14.8395L10.8498 14.842L13.0721 17.0643ZM15.3721 15.4995C14.9442 15.9315 14.4052 16.2558 13.6236 16.5444C13.4806 16.5972 13.3206 16.5593 13.2128 16.4515L11.5094 14.7481C11.3532 14.5918 11.3532 14.3386 11.5094 14.1824L14.1827 11.509C14.3389 11.3528 14.5922 11.3528 14.7484 11.509L16.4292 13.1898C16.5417 13.3024 16.5773 13.4714 16.5163 13.6184C16.1607 14.4748 15.8087 15.0588 15.3721 15.4995ZM11.1302 13.8032C10.974 13.9594 10.7207 13.9594 10.5645 13.8032L2.24433 5.48305C2.19669 5.4354 2.16185 5.37649 2.14305 5.31178L1.04866 1.54405C0.960684 1.24118 1.24148 0.960378 1.54436 1.04835L5.31209 2.14275C5.37679 2.16155 5.43571 2.19638 5.48335 2.24403L13.8035 10.5642C13.9597 10.7204 13.9597 10.9737 13.8035 11.1299L11.1302 13.8032Z" fill="white" stroke="black" stroke-width="0.5"/>
</svg>
