<svg width="14" height="14" viewBox="0 0 14 14" fill="none" xmlns="http://www.w3.org/2000/svg">
<path d="M0.10808 1.27435L4.83073 13.4687C4.93005 13.6551 5.08564 13.8053 5.27533 13.8981C5.46501 13.9908 5.67913 14.0213 5.88715 13.9852C6.09518 13.9491 6.28651 13.8482 6.43387 13.697C6.58124 13.5457 6.67712 13.3518 6.70787 13.1428L7.78786 7.80048L13.1364 6.71144C13.3459 6.68205 13.5407 6.58713 13.6931 6.44027C13.8454 6.29341 13.9474 6.10212 13.9845 5.89377C14.0216 5.68541 13.9918 5.47066 13.8996 5.28022C13.8073 5.08978 13.6572 4.93342 13.4707 4.83348L1.27379 0.108128C1.11095 0.0175094 0.923019 -0.0175496 0.738473 0.00825974C0.553927 0.034069 0.382814 0.119341 0.251051 0.251162C0.119288 0.382982 0.0340531 0.55417 0.00825487 0.738796C-0.0175433 0.923424 0.0175008 1.11143 0.10808 1.27435Z" fill="#666A73"/>
</svg>
