<svg width="17" height="17" viewBox="0 0 17 17" fill="none" xmlns="http://www.w3.org/2000/svg">
<path d="M12.9482 0C13.1791 0.000239343 13.3661 0.187107 13.3662 0.417969V3.36133H16.2695C16.5006 3.36133 16.6884 3.54821 16.6885 3.7793C16.6885 4.01043 16.5007 4.19824 16.2695 4.19824H13.3662V12.5674H16.2695C16.5005 12.5674 16.6883 12.7544 16.6885 12.9854C16.6885 13.2165 16.5007 13.4043 16.2695 13.4043H13.3662V16.3213C13.3662 16.5523 13.1792 16.74 12.9482 16.7402C12.7171 16.7402 12.5293 16.5524 12.5293 16.3213V13.4043H4.15918V16.3213C4.15918 16.5523 3.97216 16.74 3.74121 16.7402C3.51008 16.7402 3.32227 16.5524 3.32227 16.3213V13.4043H0.418945C0.187813 13.4043 -9.60624e-09 13.2165 0 12.9854C0.000191761 12.7544 0.187931 12.5674 0.418945 12.5674H3.32227V4.19824H0.418945C0.187813 4.19824 -9.60624e-09 4.01043 0 3.7793C4.79323e-05 3.54821 0.187843 3.36133 0.418945 3.36133H3.32227V0.417969C3.32241 0.186959 3.51017 0 3.74121 0C3.97207 0.000215406 4.15904 0.187092 4.15918 0.417969V3.36133H12.5293V0.417969C12.5294 0.186959 12.7172 0 12.9482 0ZM4.15918 12.5674H12.5293V4.19824H4.15918V12.5674Z" fill="white"/>
</svg>
