<svg width="17" height="17" viewBox="0 0 17 17" fill="none" xmlns="http://www.w3.org/2000/svg">
<path d="M7.91016 0.845703C8.05983 0.385051 8.71165 0.385045 8.86133 0.845703L10.1553 4.82812C10.3561 5.44611 10.9322 5.86426 11.582 5.86426H15.7695C16.2538 5.86426 16.4551 6.4838 16.0635 6.76855L12.6758 9.23047C12.1501 9.61239 11.9302 10.2893 12.1309 10.9072L13.4248 14.8906C13.5742 15.3511 13.0471 15.7339 12.6553 15.4492L9.26758 12.9883C8.74185 12.6063 8.02964 12.6063 7.50391 12.9883L4.11621 15.4492C3.72444 15.7339 3.19731 15.3512 3.34668 14.8906L4.64062 10.9072C4.8413 10.2893 4.62137 9.61239 4.0957 9.23047L0.708008 6.76855C0.316346 6.48381 0.517647 5.86426 1.00195 5.86426H5.18945C5.83926 5.86426 6.41538 5.44612 6.61621 4.82812L7.91016 0.845703Z" stroke="black"/>
</svg>
