<svg width="16" height="16" viewBox="0 0 16 16" fill="none" xmlns="http://www.w3.org/2000/svg">
<path d="M0.25 0.964286C0.25 0.569796 0.60346 0.25 1.03947 0.25H14.4605C14.8965 0.25 15.25 0.569796 15.25 0.964286V3.68227C15.25 3.87951 15.0733 4.03941 14.8553 4.03941C14.6373 4.03941 14.4605 3.87951 14.4605 3.68227V0.964286L8.14471 0.964286L8.14471 14.5357H10.9767C11.1947 14.5357 11.3715 14.6956 11.3715 14.8929C11.3715 15.0901 11.1947 15.25 10.9767 15.25H4.52327C4.30526 15.25 4.12854 15.0901 4.12854 14.8929C4.12854 14.6956 4.30526 14.5357 4.52327 14.5357H7.35524L7.35524 0.964286H1.03947V3.68227C1.03947 3.87951 0.862744 4.03941 0.644737 4.03941C0.42673 4.03941 0.25 3.87951 0.25 3.68227V0.964286Z" fill="white" stroke="black" stroke-width="0.5" stroke-linecap="round"/>
</svg>
